<svg xmlns="http://www.w3.org/2000/svg" viewBox="0 0 1280 800" width="1280" height="800">
  <defs>
    <linearGradient id="sidebarBg" x1="0%" y1="0%" x2="0%" y2="100%">
      <stop offset="0%" style="stop-color:#1A1B2E"/>
      <stop offset="100%" style="stop-color:#16172B"/>
    </linearGradient>
    <clipPath id="rounded"><rect width="1280" height="800" rx="8"/></clipPath>
  </defs>

  <g clip-path="url(#rounded)">
    <!-- Browser chrome -->
    <rect width="1280" height="800" fill="#1A1B2E"/>

    <!-- Top bar -->
    <rect width="1280" height="48" fill="#14152A"/>
    <circle cx="24" cy="24" r="6" fill="#FF5F57"/>
    <circle cx="44" cy="24" r="6" fill="#FEBC2E"/>
    <circle cx="64" cy="24" r="6" fill="#28C840"/>
    <rect x="90" y="12" width="500" height="24" rx="12" fill="#1E2036"/>
    <text x="340" y="28" font-family="Inter, sans-serif" font-size="11" fill="#6D7090" text-anchor="middle">localhost:5001/umbraco#/backups</text>

    <!-- Sidebar -->
    <rect x="0" y="48" width="220" height="752" fill="url(#sidebarBg)"/>
    <rect x="0" y="48" width="220" height="1" fill="#2B2D42"/>

    <!-- Umbraco logo area -->
    <text x="24" y="36" font-family="Inter, sans-serif" font-size="13" font-weight="700" fill="#4ECDC4">Umbraco</text>

    <text x="42" y="83" font-family="Inter, sans-serif" font-size="13" fill="#6D7090">Content</text><text x="42" y="121" font-family="Inter, sans-serif" font-size="13" fill="#6D7090">Media</text><rect x="0" y="136" width="220" height="36" rx="0" fill="#2B2D42"/><rect x="0" y="136" width="3" height="36" fill="#4ECDC4"/><text x="42" y="159" font-family="Inter, sans-serif" font-size="13" fill="#E0E2F0">Settings</text><text x="42" y="197" font-family="Inter, sans-serif" font-size="13" fill="#6D7090">Members</text><text x="42" y="235" font-family="Inter, sans-serif" font-size="13" fill="#6D7090">Forms</text><text x="42" y="273" font-family="Inter, sans-serif" font-size="13" fill="#6D7090">Packages</text>

    <!-- Main content area -->
    <rect x="220" y="48" width="1060" height="752" fill="#1E2036"/>
    <rect x="220" y="48" width="1060" height="1" fill="#2B2D42"/>

    <!-- Page header -->
    <text x="252" y="82" font-family="Inter, sans-serif" font-size="20" font-weight="700" fill="#E0E2F0">Backups</text>
    <text x="252" y="86" font-family="Inter, sans-serif" font-size="0" fill="#8D90A8">Cloud backup management</text>

    <!-- Panels -->
    
    <text x="252" y="90" font-family="Inter, sans-serif" font-size="14" font-weight="600" fill="#E0E2F0">Storage Providers</text>
    <rect x="252" y="104" width="200" height="56" rx="6" fill="#2B2D42" stroke="#3D3F5A" stroke-width="1"/>
    <circle cx="272" cy="132" r="8" fill="#0078D4"/>
    <text x="288" y="128" font-family="Inter, sans-serif" font-size="12" font-weight="600" fill="#E0E2F0">Azure Blob</text>
    <text x="288" y="144" font-family="Inter, sans-serif" font-size="10" fill="#4ECDC4">Connected</text>
    <rect x="468" y="104" width="200" height="56" rx="6" fill="#2B2D42" stroke="#3D3F5A" stroke-width="1"/>
    <circle cx="488" cy="132" r="8" fill="#FF9900"/>
    <text x="504" y="128" font-family="Inter, sans-serif" font-size="12" font-weight="600" fill="#E0E2F0">AWS S3</text>
    <text x="504" y="144" font-family="Inter, sans-serif" font-size="10" fill="#4ECDC4">Connected</text>
    <rect x="684" y="104" width="200" height="56" rx="6" fill="#2B2D42" stroke="#3D3F5A" stroke-width="1"/>
    <circle cx="704" cy="132" r="8" fill="#4285F4"/>
    <text x="720" y="128" font-family="Inter, sans-serif" font-size="12" font-weight="600" fill="#E0E2F0">Google Drive</text>
    <text x="720" y="144" font-family="Inter, sans-serif" font-size="10" fill="#8D90A8">Not configured</text>
    <rect x="900" y="104" width="200" height="56" rx="6" fill="#2B2D42" stroke="#3D3F5A" stroke-width="1"/>
    <circle cx="920" cy="132" r="8" fill="#28A745"/>
    <text x="936" y="128" font-family="Inter, sans-serif" font-size="12" font-weight="600" fill="#E0E2F0">Local Storage</text>
    <text x="936" y="144" font-family="Inter, sans-serif" font-size="10" fill="#4ECDC4">Active</text>
    <text x="252" y="182" font-family="Inter, sans-serif" font-size="14" font-weight="600" fill="#E0E2F0">Recent Backups</text><rect x="252" y="200" width="1004" height="28" rx="4" fill="#2B2D42"/><text x="264" y="218" font-family="Inter, sans-serif" font-size="11" font-weight="600" fill="#8D90A8">Date</text><text x="511" y="218" font-family="Inter, sans-serif" font-size="11" font-weight="600" fill="#8D90A8">Provider</text><text x="758" y="218" font-family="Inter, sans-serif" font-size="11" font-weight="600" fill="#8D90A8">Size</text><text x="1005" y="218" font-family="Inter, sans-serif" font-size="11" font-weight="600" fill="#8D90A8">Status</text><rect x="252" y="230" width="1004" height="26" rx="2" fill="#1E2036" opacity="0.5"/><text x="264" y="247" font-family="Inter, sans-serif" font-size="11" fill="#C0C4D8">2024-01-15 03:00</text><text x="511" y="247" font-family="Inter, sans-serif" font-size="11" fill="#C0C4D8">Azure Blob</text><text x="758" y="247" font-family="Inter, sans-serif" font-size="11" fill="#C0C4D8">245 MB</text><text x="1005" y="247" font-family="Inter, sans-serif" font-size="11" fill="#4ECDC4">Completed</text><text x="264" y="273" font-family="Inter, sans-serif" font-size="11" fill="#C0C4D8">2024-01-14 03:00</text><text x="511" y="273" font-family="Inter, sans-serif" font-size="11" fill="#C0C4D8">AWS S3</text><text x="758" y="273" font-family="Inter, sans-serif" font-size="11" fill="#C0C4D8">243 MB</text><text x="1005" y="273" font-family="Inter, sans-serif" font-size="11" fill="#4ECDC4">Completed</text><rect x="252" y="282" width="1004" height="26" rx="2" fill="#1E2036" opacity="0.5"/><text x="264" y="299" font-family="Inter, sans-serif" font-size="11" fill="#C0C4D8">2024-01-13 03:00</text><text x="511" y="299" font-family="Inter, sans-serif" font-size="11" fill="#C0C4D8">Azure Blob</text><text x="758" y="299" font-family="Inter, sans-serif" font-size="11" fill="#C0C4D8">241 MB</text><text x="1005" y="299" font-family="Inter, sans-serif" font-size="11" fill="#4ECDC4">Completed</text>

    <!-- Actions -->
    
      <rect x="252" y="324" width="110" height="30" rx="4" fill="#4ECDC4" stroke="#4ECDC4" stroke-width="1"/>
      <text x="307" y="343" font-family="Inter, sans-serif" font-size="11" font-weight="600" fill="#1A1B2E" text-anchor="middle">Create Backup</text>
      <rect x="372" y="324" width="110" height="30" rx="4" fill="#2B2D42" stroke="#3D3F5A" stroke-width="1"/>
      <text x="427" y="343" font-family="Inter, sans-serif" font-size="11" font-weight="400" fill="#C0C4D8" text-anchor="middle">Schedule</text>
      <rect x="492" y="324" width="110" height="30" rx="4" fill="#2B2D42" stroke="#3D3F5A" stroke-width="1"/>
      <text x="547" y="343" font-family="Inter, sans-serif" font-size="11" font-weight="400" fill="#C0C4D8" text-anchor="middle">Restore</text>

    <!-- Watermark -->
    <text x="1264" y="790" font-family="Inter, sans-serif" font-size="9" fill="#3D3F5A" text-anchor="end">SplatDev.Umbraco.Plugins</text>
  </g>
</svg>