<svg xmlns="http://www.w3.org/2000/svg" viewBox="0 0 128 128" width="128" height="128">
  <defs>
    <linearGradient id="bg" x1="0%" y1="0%" x2="100%" y2="100%">
      <stop offset="0%" style="stop-color:#1B2A3B"/>
      <stop offset="100%" style="stop-color:#0D1724"/>
    </linearGradient>
    <linearGradient id="teal" x1="0%" y1="0%" x2="100%" y2="0%">
      <stop offset="0%" style="stop-color:#4ECDC4"/>
      <stop offset="100%" style="stop-color:#7EC8C8"/>
    </linearGradient>
  </defs>

  <!-- Background rounded square -->
  <rect width="128" height="128" rx="20" fill="url(#bg)"/>

  <!-- YAML code lines — left panel -->
  <!-- Line 1: key -->
  <rect x="12" y="26" width="8" height="4" rx="2" fill="#4ECDC4"/>
  <rect x="22" y="26" width="22" height="4" rx="2" fill="#7EC8C8" opacity="0.8"/>
  <!-- Line 2: indented value -->
  <rect x="16" y="35" width="6" height="4" rx="2" fill="#FF6B6B" opacity="0.8"/>
  <rect x="24" y="35" width="16" height="4" rx="2" fill="#B0C4DE" opacity="0.7"/>
  <!-- Line 3: indented value -->
  <rect x="16" y="44" width="6" height="4" rx="2" fill="#FF6B6B" opacity="0.8"/>
  <rect x="24" y="44" width="20" height="4" rx="2" fill="#B0C4DE" opacity="0.7"/>
  <!-- Line 4: key -->
  <rect x="12" y="53" width="8" height="4" rx="2" fill="#4ECDC4"/>
  <rect x="22" y="53" width="18" height="4" rx="2" fill="#7EC8C8" opacity="0.8"/>
  <!-- Line 5: indented value -->
  <rect x="16" y="62" width="6" height="4" rx="2" fill="#FF6B6B" opacity="0.8"/>
  <rect x="24" y="62" width="14" height="4" rx="2" fill="#B0C4DE" opacity="0.7"/>
  <!-- Line 6: key -->
  <rect x="12" y="71" width="8" height="4" rx="2" fill="#4ECDC4"/>
  <rect x="22" y="71" width="24" height="4" rx="2" fill="#7EC8C8" opacity="0.8"/>
  <!-- Line 7: indented value -->
  <rect x="16" y="80" width="6" height="4" rx="2" fill="#FF6B6B" opacity="0.8"/>
  <rect x="24" y="80" width="18" height="4" rx="2" fill="#B0C4DE" opacity="0.7"/>
  <!-- Line 8: indented value -->
  <rect x="16" y="89" width="6" height="4" rx="2" fill="#FF6B6B" opacity="0.8"/>
  <rect x="24" y="89" width="12" height="4" rx="2" fill="#B0C4DE" opacity="0.7"/>

  <!-- Divider -->
  <line x1="56" y1="16" x2="56" y2="112" stroke="#2A4060" stroke-width="1"/>

  <!-- Arrow -->
  <path d="M62 64 L74 64" stroke="#FF6B6B" stroke-width="3" stroke-linecap="round"/>
  <path d="M70 58 L76 64 L70 70" stroke="#FF6B6B" stroke-width="3" stroke-linecap="round" stroke-linejoin="round" fill="none"/>

  <!-- Schema tree — right panel -->
  <!-- Root node -->
  <circle cx="100" cy="32" r="8" fill="#FF6B6B"/>
  <circle cx="100" cy="32" r="5" fill="#FF8E8E"/>

  <!-- Connector lines to level 2 -->
  <line x1="94" y1="38" x2="84" y2="56" stroke="#4ECDC4" stroke-width="1.5" opacity="0.5"/>
  <line x1="106" y1="38" x2="116" y2="56" stroke="#4ECDC4" stroke-width="1.5" opacity="0.5"/>

  <!-- Level 2 nodes -->
  <circle cx="84" cy="60" r="6" fill="#4ECDC4"/>
  <circle cx="84" cy="60" r="3.5" fill="#6EDBD5"/>
  <circle cx="116" cy="60" r="6" fill="#4ECDC4"/>
  <circle cx="116" cy="60" r="3.5" fill="#6EDBD5"/>

  <!-- Connector lines to level 3 -->
  <line x1="80" y1="65" x2="74" y2="82" stroke="#4ECDC4" stroke-width="1.5" opacity="0.4"/>
  <line x1="88" y1="65" x2="94" y2="82" stroke="#4ECDC4" stroke-width="1.5" opacity="0.4"/>
  <line x1="112" y1="65" x2="106" y2="82" stroke="#4ECDC4" stroke-width="1.5" opacity="0.4"/>
  <line x1="120" y1="65" x2="116" y2="82" stroke="#4ECDC4" stroke-width="1.5" opacity="0.4"/>

  <!-- Level 3 nodes -->
  <circle cx="74" cy="86" r="5" fill="#7EC8C8" opacity="0.85"/>
  <circle cx="94" cy="86" r="5" fill="#7EC8C8" opacity="0.85"/>
  <circle cx="106" cy="86" r="5" fill="#7EC8C8" opacity="0.85"/>
  <circle cx="116" cy="86" r="5" fill="#7EC8C8" opacity="0.85"/>

  <!-- Subtle bottom label -->
  <text x="64" y="108" font-family="monospace" font-size="7" fill="#4ECDC4" opacity="0.6" text-anchor="middle" letter-spacing="2">YAML2SCHEMA</text>
</svg>
