<?xml version="1.0" encoding="utf-8"?>
<!-- Generator: Adobe Illustrator 27.5.0, SVG Export Plug-In . SVG Version: 6.00 Build 0)  -->
<svg version="1.1" id="Layer_1" xmlns="http://www.w3.org/2000/svg" xmlns:xlink="http://www.w3.org/1999/xlink" x="0px" y="0px"
	 viewBox="0 0 90 80" style="enable-background:new 0 0 90 80;" xml:space="preserve">
<g>
	<path d="M2.2,0h18.4H45h24.4h18.4C89,0,90,1.1,90,2.5v75c0,1.4-1,2.5-2.2,2.5H69.4H45H20.6H2.2C1,80,0,78.9,0,77.5v-75
		C0,1.1,1,0,2.2,0L2.2,0z M22.8,5V75h19.9V5C42.8,5,22.8,5,22.8,5z M18.4,75V5H4.5V75H18.4z M47.2,5V75h19.9V5H47.2L47.2,5z M71.6,5
		V75h13.9V5H71.6z"/>
</g>
</svg>
